<?xml version="1.0" encoding="UTF-8"?>
<svg width="24px" height="24px" viewBox="0 0 24 24" version="1.1" xmlns="http://www.w3.org/2000/svg" xmlns:xlink="http://www.w3.org/1999/xlink">
    <title>instagram</title>
    <defs>
        <radialGradient cx="6.47189943%" cy="97.8093144%" fx="6.47189943%" fy="97.8093144%" r="126.962879%" id="radialGradient-1">
            <stop stop-color="#FA8F21" offset="9%"></stop>
            <stop stop-color="#D82D7E" offset="78%"></stop>
        </radialGradient>
        <radialGradient cx="69.2665022%" cy="94.5983297%" fx="69.2665022%" fy="94.5983297%" r="111.728534%" id="radialGradient-2">
            <stop stop-color="#8C3AAA" stop-opacity="0" offset="64%"></stop>
            <stop stop-color="#8C3AAA" offset="100%"></stop>
        </radialGradient>
    </defs>
    <g id="Page-1" stroke="none" stroke-width="1" fill="none" fill-rule="evenodd">
        <g id="instagram" fill-rule="nonzero">
            <path d="M6.08577288,23.9151187 C4.65848367,23.8502095 3.88313966,23.6126846 3.36743246,23.4115374 C2.68410259,23.145481 2.19692692,22.8287812 1.68407287,22.3166404 C1.17121883,21.8044997 0.853805688,21.317324 0.589175855,20.6339941 C0.38802865,20.1182869 0.15050376,19.3429429 0.0855945552,17.9156537 C0.0142657592,16.3728118 0,15.909888 0,12.0010699 C0,8.09225191 0.0156923351,7.63004131 0.0848812673,6.08577288 C0.149790472,4.65848367 0.388741938,3.88456623 0.588462567,3.36743246 C0.854518976,2.68410259 1.17193212,2.19692692 1.68335959,1.68335959 C2.19550034,1.17121883 2.68267602,0.853092401 3.36671917,0.588462567 C3.88242637,0.387315362 4.65777038,0.149790472 6.08505959,0.0848812673 C7.62861474,0.0142657592 8.09225191,0 11.9996434,0 C15.9084614,0 16.370672,0.0156923351 17.9149404,0.0848812673 C19.3422296,0.149790472 20.1161471,0.388741938 20.6332808,0.588462567 C21.3166107,0.853092401 21.8037864,1.17121883 22.3166404,1.68335959 C22.8294945,2.19550034 23.145481,2.68338931 23.4115374,3.36671917 C23.6126846,3.88242637 23.8502095,4.65777038 23.9151187,6.08505959 C23.9857342,7.62932802 24,8.09153862 24,12.0003566 C24,15.9077481 23.9857342,16.3713853 23.9151187,17.9156537 C23.8502095,19.3429429 23.6112581,20.1182869 23.4115374,20.6339941 C23.145481,21.317324 22.8287812,21.8044997 22.3166404,22.3166404 C21.8044997,22.8287812 21.3166107,23.145481 20.6332808,23.4115374 C20.1175736,23.6126846 19.3422296,23.8502095 17.9149404,23.9151187 C16.3720986,23.9857342 15.9084614,24 11.9996434,24 C8.09225191,24 7.62861474,23.9864475 6.08577288,23.9151187" id="Path" fill="url(#radialGradient-1)"></path>
            <path d="M6.08577288,23.9151187 C4.65848367,23.8502095 3.88313966,23.6126846 3.36743246,23.4115374 C2.68410259,23.145481 2.19692692,22.8287812 1.68407287,22.3166404 C1.17121883,21.8044997 0.853805688,21.317324 0.589175855,20.6339941 C0.38802865,20.1182869 0.15050376,19.3429429 0.0855945552,17.9156537 C0.0142657592,16.3728118 0,15.909888 0,12.0010699 C0,8.09225191 0.0156923351,7.63004131 0.0848812673,6.08577288 C0.149790472,4.65848367 0.388741938,3.88456623 0.588462567,3.36743246 C0.854518976,2.68410259 1.17193212,2.19692692 1.68335959,1.68335959 C2.19550034,1.17121883 2.68267602,0.853092401 3.36671917,0.588462567 C3.88242637,0.387315362 4.65777038,0.149790472 6.08505959,0.0848812673 C7.62861474,0.0142657592 8.09225191,0 11.9996434,0 C15.9084614,0 16.370672,0.0156923351 17.9149404,0.0848812673 C19.3422296,0.149790472 20.1161471,0.388741938 20.6332808,0.588462567 C21.3166107,0.853092401 21.8037864,1.17121883 22.3166404,1.68335959 C22.8294945,2.19550034 23.145481,2.68338931 23.4115374,3.36671917 C23.6126846,3.88242637 23.8502095,4.65777038 23.9151187,6.08505959 C23.9857342,7.62932802 24,8.09153862 24,12.0003566 C24,15.9077481 23.9857342,16.3713853 23.9151187,17.9156537 C23.8502095,19.3429429 23.6112581,20.1182869 23.4115374,20.6339941 C23.145481,21.317324 22.8287812,21.8044997 22.3166404,22.3166404 C21.8044997,22.8287812 21.3166107,23.145481 20.6332808,23.4115374 C20.1175736,23.6126846 19.3422296,23.8502095 17.9149404,23.9151187 C16.3720986,23.9857342 15.9084614,24 11.9996434,24 C8.09225191,24 7.62861474,23.9864475 6.08577288,23.9151187" id="Path" fill="url(#radialGradient-2)"></path>
            <path d="M9.05340744,12.0511427 C9.05340744,10.4097958 10.3836182,9.07887182 12.0249651,9.07887182 C13.666312,9.07887182 14.997236,10.4097958 14.997236,12.0511427 C14.997236,13.6924897 13.666312,15.0234137 12.0249651,15.0234137 C10.3836182,15.0234137 9.05340744,13.6924897 9.05340744,12.0511427 M7.44665498,12.0511427 C7.44665498,14.5797486 9.49635926,16.6294528 12.0249651,16.6294528 C14.5535709,16.6294528 16.6032752,14.5797486 16.6032752,12.0511427 C16.6032752,9.52253693 14.5535709,7.47283264 12.0249651,7.47283264 C9.49635926,7.47283264 7.44665498,9.52239427 7.44665498,12.0511427 M15.714661,7.29130086 C15.7144247,7.88220788 16.1932579,8.36142425 16.784165,8.36166069 C17.375072,8.36189695 17.8542884,7.88306377 17.8545248,7.29215675 C17.8547611,6.70124972 17.375928,6.2220333 16.785021,6.22179689 L16.784593,6.22179689 C16.193967,6.22207217 15.7151726,6.70067506 15.714661,7.29130086 M8.42286088,19.3087051 C7.55357684,19.2691176 7.0810949,19.1243201 6.76710554,19.0019913 C6.35083068,18.8399322 6.05381758,18.6469165 5.74154011,18.335067 C5.42926264,18.0232175 5.2359616,17.7264897 5.07461586,17.3102149 C4.95221565,16.9963682 4.80741819,16.5237436 4.76790204,15.6544595 C4.72467679,14.7146313 4.71604601,14.4323119 4.71604601,12.0512854 C4.71604601,9.67025886 4.72539008,9.38872411 4.76790204,8.44811127 C4.80748952,7.57882724 4.95335691,7.10712991 5.07461586,6.79235593 C5.23667489,6.37608108 5.42969061,6.07906797 5.74154011,5.7667905 C6.0533896,5.45451303 6.3501174,5.261212 6.76710554,5.09986626 C7.08095224,4.97746604 7.55357684,4.83266859 8.42286088,4.79315244 C9.3626891,4.74992719 9.64500847,4.7412964 12.0249651,4.7412964 C14.4049217,4.7412964 14.6875264,4.75049782 15.6281392,4.79329509 C16.4974232,4.83288257 16.9691206,4.97874996 17.2838946,5.10000892 C17.7001694,5.26135465 17.9971825,5.45508366 18.30946,5.76693316 C18.6217375,6.07878266 18.8143252,6.37622373 18.9763842,6.79249859 C19.0987844,7.10634529 19.2435819,7.57896989 19.283098,8.44825393 C19.3263233,9.38886676 19.3349541,9.67040152 19.3349541,12.0514281 C19.3349541,14.4324546 19.3263233,14.7139894 19.283098,15.6546022 C19.2435106,16.5238862 19.0979998,16.9963682 18.9763842,17.3103575 C18.8143252,17.7266324 18.6213095,18.0236455 18.30946,18.3352097 C17.9976105,18.6467739 17.7001694,18.8400749 17.2838946,19.0021339 C16.9700478,19.1245341 16.4974232,19.2693316 15.6281392,19.3088477 C14.688311,19.352073 14.4059916,19.3607038 12.0249651,19.3607038 C9.64393854,19.3607038 9.36240378,19.352073 8.42286088,19.3088477 M8.34903558,3.18903914 C7.39986329,3.23226439 6.75127054,3.38276815 6.18484857,3.60317413 C5.5985972,3.83078432 5.10164948,4.1361429 4.60541504,4.63159271 C4.10918061,5.12704253 3.80460665,5.62406158 3.57699646,6.21102624 C3.35659048,6.77780486 3.20608672,7.42604095 3.16286147,8.37521324 C3.11892294,9.32588344 3.10886557,9.62981544 3.10886557,12.0511427 C3.10886557,14.4724701 3.11892294,14.7764021 3.16286147,15.7270723 C3.20608672,16.6763159 3.35659048,17.3244806 3.57699646,17.8912593 C3.80460665,18.4775106 4.10925194,18.975457 4.60541504,19.4706928 C5.10157815,19.9659286 5.59788391,20.2708592 6.18484857,20.4991114 C6.75234048,20.7195173 7.39986329,20.8700211 8.34903558,20.9132464 C9.30020507,20.9564716 9.60363777,20.9672423 12.0249651,20.9672423 C14.4462924,20.9672423 14.7502244,20.9571849 15.7008946,20.9132464 C16.6501382,20.8700211 17.298303,20.7195173 17.8650816,20.4991114 C18.451333,20.2708592 18.9482807,19.9661426 19.4445151,19.4706928 C19.9407495,18.975243 20.2446815,18.4775106 20.4729337,17.8912593 C20.6933397,17.3244806 20.8445567,16.6762445 20.8870687,15.7270723 C20.9302939,14.7756888 20.9403513,14.4724701 20.9403513,12.0511427 C20.9403513,9.62981544 20.9302939,9.32588344 20.8870687,8.37521324 C20.8438434,7.42596963 20.6933397,6.77744821 20.4729337,6.21102624 C20.2446815,5.62477487 19.9399649,5.12782715 19.4445151,4.63159271 C18.9490653,4.13535828 18.451333,3.83078432 17.8657949,3.60317413 C17.298303,3.38276815 16.6500669,3.2315511 15.7016079,3.18903914 C14.750795,3.1455999 14.4470057,3.13504324 12.026035,3.13504324 C9.60506434,3.13504324 9.30056171,3.1451006 8.34939222,3.18903914" id="Shape" fill="#FFFFFF"></path>
        </g>
    </g>
</svg>