<?xml version="1.0" encoding="UTF-8"?>
<svg width="24px" height="24px" viewBox="0 0 24 24" version="1.1" xmlns="http://www.w3.org/2000/svg" xmlns:xlink="http://www.w3.org/1999/xlink">
    <title>linkedin</title>
    <g id="Page-1" stroke="none" stroke-width="1" fill="none" fill-rule="evenodd">
        <g id="linkedin" fill-rule="nonzero">
            <path d="M0,1.7191875 C0,0.77025 0.7944375,0 1.77375,0 L22.22625,0 C23.2059375,0 24,0.77025 24,1.7191875 L24,22.2810938 C24,23.2303125 23.2059375,24 22.22625,24 L1.77375,24 C0.79453125,24 0,23.2304063 0,22.281375 L0,1.71890625 L0,1.7191875 Z" id="Path" fill="#006699"></path>
            <path d="M7.293375,20.0848125 L7.293375,9.2799375 L3.702,9.2799375 L3.702,20.0848125 L7.29375,20.0848125 L7.293375,20.0848125 Z M5.4984375,7.80496875 C6.7505625,7.80496875 7.53009375,6.97528125 7.53009375,5.93840625 C7.50665625,4.87790625 6.7505625,4.071375 5.52225,4.071375 C4.29309375,4.071375 3.4903125,4.87790625 3.4903125,5.9383125 C3.4903125,6.9751875 4.2695625,7.804875 5.47490625,7.804875 L5.49815625,7.804875 L5.4984375,7.80496875 Z M9.28115625,20.0848125 L12.8723438,20.0848125 L12.8723438,14.0515313 C12.8723438,13.7290313 12.8957813,13.4056875 12.9906563,13.1753438 C13.2501563,12.529875 13.8410625,11.8617188 14.8334063,11.8617188 C16.1325938,11.8617188 16.652625,12.8524688 16.652625,14.305125 L16.652625,20.0848125 L20.243625,20.0848125 L20.243625,13.889625 C20.243625,10.5709688 18.472125,9.026625 16.1093438,9.026625 C14.1721875,9.026625 13.3214063,10.1093438 12.8487188,10.8467813 L12.872625,10.8467813 L12.872625,9.2803125 L9.2814375,9.2803125 C9.3283125,10.2939375 9.28115625,20.0851875 9.28115625,20.0851875 L9.28115625,20.0848125 Z" id="Shape" fill="#FFFFFF"></path>
        </g>
    </g>
</svg>