<?xml version="1.0" encoding="UTF-8"?>
<svg width="63px" height="22px" viewBox="0 0 63 22" version="1.1" xmlns="http://www.w3.org/2000/svg" xmlns:xlink="http://www.w3.org/1999/xlink">
    <title>logo</title>
    <g id="Page-1" stroke="none" stroke-width="1" fill="none" fill-rule="evenodd">
        <g id="logo" fill="#000000" fill-rule="nonzero">
            <path d="M4.82536067,6.67974285 C4.70083523,6.67974285 4.66970387,6.62224394 4.73196659,6.53599556 L5.38572513,5.75976022 C5.44798785,5.67351184 5.60364465,5.61601293 5.72817008,5.61601293 L16.8420653,5.61601293 C16.9665907,5.61601293 16.9977221,5.7022613 16.9354594,5.78850967 L16.4062263,6.53599556 C16.3439636,6.62224394 16.1883068,6.70849231 16.0949127,6.70849231 L4.82536067,6.67974285 Z M0.124525437,9.32469292 C0,9.32469292 -0.0311313591,9.26719401 0.0311313591,9.18094564 L0.684889901,8.40471029 C0.74715262,8.31846192 0.902809415,8.260963 1.02733485,8.260963 L15.2232346,8.260963 C15.3477601,8.260963 15.4100228,8.34721137 15.3788914,8.43345975 L15.1298405,9.12344672 C15.0987092,9.23844455 14.9741838,9.29594347 14.8496583,9.29594347 L0.124525437,9.32469292 Z M7.65831435,11.969643 C7.53378891,11.969643 7.50265756,11.8833946 7.56492027,11.7971463 L8.0007593,11.0784098 C8.06302202,10.9921614 8.18754746,10.9059131 8.31207289,10.9059131 L14.5383447,10.9059131 C14.6628702,10.9059131 14.7251329,10.9921614 14.7251329,11.1071593 L14.6628702,11.7971463 C14.6628702,11.9121441 14.5383447,11.9983925 14.4449506,11.9983925 L7.65831435,11.969643 Z M39.9726651,6.16225262 C38.0113895,6.62224394 36.6727411,6.96723742 34.7425968,7.42722874 C34.2756264,7.54222657 34.2444951,7.57097603 33.8397874,7.13973417 C33.372817,6.65099339 33.0303721,6.33474936 32.3766135,6.04725479 C30.4153379,5.15602161 28.516325,5.41476673 26.7418375,6.47849665 C24.6249051,7.74347277 23.5353075,9.6121875 23.5664389,11.9408935 C23.5975702,14.2408501 25.309795,16.1383143 27.7691724,16.4545583 C29.8861048,16.7133035 31.6605923,16.0233165 33.0615034,14.5570942 C33.3416856,14.2408501 33.5907365,13.8958566 33.9020501,13.4933642 L27.8936978,13.4933642 C27.2399393,13.4933642 27.0842825,13.1196213 27.302202,12.6308805 C27.7069096,11.7396473 28.4540623,10.2446756 28.8899013,9.49718967 C28.9832954,9.32469292 29.2012149,9.03719835 29.6681853,9.03719835 L41,9.03719835 C40.9377373,9.8134337 40.9377373,10.589669 40.8132118,11.3659044 C40.4707669,13.4358653 39.6302202,15.3333295 38.2604404,17.000798 C36.0189825,19.7319965 33.0926348,21.4282145 29.388003,21.8882058 C26.3371298,22.2619487 23.5041762,21.715709 21.0136674,19.9907416 C18.7099468,18.380772 17.4024298,16.2533121 17.0599848,13.6083621 C16.6552771,10.4746712 17.6514806,7.6572244 19.7061503,5.18477107 C21.9164768,2.51107154 24.8428246,0.814853555 28.4229309,0.211114951 C31.3492787,-0.277625823 34.151101,0.0386182074 36.6727411,1.61983836 C38.3227031,2.62606937 39.5056948,4.00604332 40.2839787,5.67351184 C40.4707669,5.93225696 40.3462415,6.07600425 39.9726651,6.16225262 Z" id="Shape"></path>
            <path d="M49.214663,22 C46.356313,21.9419589 43.7492465,21.1874245 41.5505157,19.4461914 C39.6972998,17.9661432 38.5351135,16.0798073 38.1581883,13.8452248 C37.5928003,10.5659023 38.566524,7.66384709 40.7024339,5.08101792 C42.9953959,2.29504488 45.7595146,0.844017259 49.4973569,0.234585657 C52.7012218,-0.287784287 55.716624,0.00242123747 58.4493322,1.71463383 C60.9307569,3.28174367 62.4698685,5.40024399 62.8782042,8.18621703 C63.4121817,12.1039916 62.1871745,15.2962524 59.2660036,18.0241843 C57.1929146,19.9685613 54.648669,21.1874245 51.7274981,21.738815 C50.8794163,21.8839178 50.0313344,21.9129383 49.214663,22 L49.214663,22 Z M56.6903476,10.2756968 C56.6589372,9.89842963 56.6589372,9.6082241 56.5961163,9.31801858 C56.0307284,6.44498388 53.1723784,4.81983295 50.1883866,5.4582851 C47.2672157,6.0677167 45.3825894,7.7799293 44.6915597,10.5078612 C44.1261718,12.7714643 45.3197685,15.064088 47.5813201,15.9927456 C49.3088943,16.6892389 51.0364685,16.6021772 52.7012218,15.8186223 C55.1826465,14.6287797 56.5332954,12.7714643 56.6903476,10.2756968 L56.6903476,10.2756968 Z" id="Shape"></path>
        </g>
    </g>
</svg>