<?xml version="1.0" encoding="UTF-8"?>
<svg width="24px" height="24px" viewBox="0 0 24 24" version="1.1" xmlns="http://www.w3.org/2000/svg" xmlns:xlink="http://www.w3.org/1999/xlink">
    <title>twitter</title>
    <g id="Page-1" stroke="none" stroke-width="1" fill="none" fill-rule="evenodd">
        <g id="twitter" transform="translate(-0.000000, 0.000000)" fill="#03A9F4" fill-rule="nonzero">
            <path d="M24,2.84123077 C23.1075,3.32307692 22.1565,3.64246154 21.165,3.79753846 C22.185,3.048 22.9635,1.87015385 23.3295,0.450461538 C22.3785,1.14830769 21.3285,1.64123077 20.2095,1.91630769 C19.3065,0.732923077 18.0195,0 16.6155,0 C13.8915,0 11.6985,2.72123077 11.6985,6.05723077 C11.6985,6.53723077 11.7315,6.99876923 11.8125,7.43815385 C7.722,7.19261538 4.1025,4.77969231 1.671,1.104 C1.2465,2.01046154 0.9975,3.048 0.9975,4.16492308 C0.9975,6.26215385 1.875,8.12123077 3.183,9.19753846 C2.3925,9.17907692 1.617,8.89661538 0.96,8.45169231 C0.96,8.47015385 0.96,8.49415385 0.96,8.51815385 C0.96,11.4609231 2.6655,13.9052308 4.902,14.4683077 C4.5015,14.6030769 4.065,14.6676923 3.612,14.6676923 C3.297,14.6676923 2.979,14.6455385 2.6805,14.5643077 C3.318,16.9624615 5.127,18.7255385 7.278,18.7827692 C5.604,20.3944615 3.4785,21.3655385 1.1775,21.3655385 C0.774,21.3655385 0.387,21.3433846 0,21.2824615 C2.1795,23.0123077 4.7625,24 7.548,24 C16.602,24 21.552,14.7692308 21.552,6.768 C21.552,6.50030769 21.5445,6.24184615 21.534,5.98523077 C22.5105,5.13230769 23.331,4.06707692 24,2.84123077 Z" id="Path"></path>
        </g>
    </g>
</svg>